<svg xmlns="http://www.w3.org/2000/svg" width="346" height="346" fill="none" viewBox="0 0 346 346"><g fill="#859A00" clip-path="url(#a)"><path d="M0 173c0 68.659 40.006 127.587 97.313 155.7L15.138 102.719C5.406 124.344 0 148.131 0 173Zm289.775-8.65c0-21.625-7.569-36.222-14.056-47.575-8.65-14.056-16.76-26.49-16.76-40.547 0-15.678 11.894-30.815 29.194-30.815h2.163C258.959 17.3 217.872 0 173 0 112.45 0 59.469 30.816 28.653 77.85h11.353c17.84 0 45.953-2.162 45.953-2.162 9.191-.541 10.272 12.974 1.082 14.056 0 0-9.191 1.081-20.004 1.622l62.713 188.137 37.844-113.531-27.031-74.066c-9.191-.54-18.382-1.622-18.382-1.622-9.19-.54-8.109-14.597 1.082-14.056 0 0 28.653 2.163 45.412 2.163 17.841 0 45.953-2.163 45.953-2.163 9.191-.54 10.272 12.975 1.081 14.056 0 0-9.19 1.082-20.003 1.622L259.5 277.881l17.3-57.847c7.028-23.787 12.975-41.087 12.975-55.684Z"/><path d="m176.244 188.137-51.9 150.835C140.022 343.297 156.241 346 173 346c20.003 0 39.466-3.244 57.306-9.731-.54-.541-1.081-1.622-1.081-2.163l-52.981-145.969Zm148.672-98.393c.54 5.406 1.081 11.353 1.081 17.84 0 17.3-3.244 37.303-12.975 62.172l-52.981 152.997C311.4 292.478 346 236.794 346 173c0-30.275-7.569-58.388-21.084-83.256Z"/></g><defs><clipPath id="a"><path fill="#fff" d="M0 0h346v346H0z"/></clipPath></defs></svg>