<svg width="61" height="61" viewBox="0 0 61 61" fill="none" xmlns="http://www.w3.org/2000/svg">
<path fill-rule="evenodd" clip-rule="evenodd" d="M30.6788 0.948406L30.69 0.948364C38.5779 0.948385 46.1429 4.08187 51.7205 9.65952C57.2981 15.2372 60.4316 22.8021 60.4316 30.69C60.4316 32.3326 59.1001 33.6642 57.4575 33.6642C55.8149 33.6642 54.4833 32.3326 54.4833 30.69C54.4833 24.3797 51.9765 18.3277 47.5144 13.8656C43.0536 9.40482 37.0039 6.89819 30.6955 6.89672C23.9901 6.92339 17.5539 9.53733 12.7289 14.1931L6.02552 20.8964C4.86404 22.0579 2.9809 22.0579 1.81942 20.8964C0.657932 19.735 0.657932 17.8518 1.81942 16.6903L8.54103 9.96871L8.57691 9.93344C14.5089 4.19883 22.4281 0.979444 30.6788 0.948406Z" fill="white"/>
<path fill-rule="evenodd" clip-rule="evenodd" d="M3.92247 0.948364C5.56506 0.948364 6.89664 2.27994 6.89664 3.92253V15.8192H18.7933C20.4359 15.8192 21.7675 17.1508 21.7675 18.7934C21.7675 20.436 20.4359 21.7675 18.7933 21.7675H3.92247C2.27988 21.7675 0.948303 20.436 0.948303 18.7934V3.92253C0.948303 2.27994 2.27988 0.948364 3.92247 0.948364Z" fill="white"/>
<path fill-rule="evenodd" clip-rule="evenodd" d="M3.92247 27.7158C5.56506 27.7158 6.89664 29.0474 6.89664 30.69C6.89664 37.0004 9.40343 43.0523 13.8655 47.5144C18.3263 51.9751 24.3758 54.4818 30.6841 54.4833C37.3897 54.4567 43.8259 51.8428 48.6511 47.1869L55.3544 40.4836C56.5159 39.3221 58.399 39.3221 59.5605 40.4836C60.722 41.6451 60.722 43.5282 59.5605 44.6897L52.8389 51.4113L52.803 51.4466C46.871 57.1812 38.9518 60.4006 30.7012 60.4316L30.69 60.4317C22.802 60.4317 15.2371 57.2982 9.65943 51.7205C4.08179 46.1429 0.948303 38.578 0.948303 30.69C0.948303 29.0474 2.27988 27.7158 3.92247 27.7158Z" fill="white"/>
<path fill-rule="evenodd" clip-rule="evenodd" d="M39.6125 42.5867C39.6125 40.9441 40.9441 39.6125 42.5867 39.6125H57.4575C59.1001 39.6125 60.4317 40.9441 60.4317 42.5867V57.4575C60.4317 59.1001 59.1001 60.4317 57.4575 60.4317C55.8149 60.4317 54.4833 59.1001 54.4833 57.4575V45.5609H42.5867C40.9441 45.5609 39.6125 44.2293 39.6125 42.5867Z" fill="white"/>
</svg>
