<svg width="73" height="72" viewBox="0 0 72 72" fill="none" xmlns="http://www.w3.org/2000/svg">
<path fill-rule="evenodd" clip-rule="evenodd" d="M11.8966 14.8708C10.254 14.8708 8.92245 16.2024 8.92245 17.845V53.535C8.92245 55.1776 10.254 56.5091 11.8966 56.5091H59.4833C61.1259 56.5091 62.4575 55.1776 62.4575 53.535V17.845C62.4575 16.2024 61.1259 14.8708 59.4833 14.8708H11.8966ZM2.97412 17.845C2.97412 12.9172 6.96886 8.92249 11.8966 8.92249H59.4833C64.411 8.92249 68.4058 12.9172 68.4058 17.845V53.535C68.4058 58.4627 64.411 62.4575 59.4833 62.4575H11.8966C6.96886 62.4575 2.97412 58.4627 2.97412 53.535V17.845Z" fill="white"/>
<path fill-rule="evenodd" clip-rule="evenodd" d="M14.8708 23.7934C14.8708 22.1508 16.2024 20.8192 17.845 20.8192H17.8748C19.5173 20.8192 20.8489 22.1508 20.8489 23.7934C20.8489 25.436 19.5173 26.7675 17.8748 26.7675H17.845C16.2024 26.7675 14.8708 25.436 14.8708 23.7934Z" fill="white"/>
<path fill-rule="evenodd" clip-rule="evenodd" d="M26.7675 23.7934C26.7675 22.1508 28.099 20.8192 29.7416 20.8192H29.7714C31.414 20.8192 32.7455 22.1508 32.7455 23.7934C32.7455 25.436 31.414 26.7675 29.7714 26.7675H29.7416C28.099 26.7675 26.7675 25.436 26.7675 23.7934Z" fill="white"/>
<path fill-rule="evenodd" clip-rule="evenodd" d="M38.6642 23.7934C38.6642 22.1508 39.9958 20.8192 41.6384 20.8192H41.6681C43.3107 20.8192 44.6423 22.1508 44.6423 23.7934C44.6423 25.436 43.3107 26.7675 41.6681 26.7675H41.6384C39.9958 26.7675 38.6642 25.436 38.6642 23.7934Z" fill="white"/>
</svg>

