<svg width="72" height="72" viewBox="0 0 72 72" fill="none" xmlns="http://www.w3.org/2000/svg">
<path d="M40.1511 20.8191C40.9724 20.8191 41.6382 20.1533 41.6382 19.3321C41.6382 18.5108 40.9724 17.845 40.1511 17.845C39.3299 17.845 38.6641 18.5108 38.6641 19.3321C38.6641 20.1533 39.3299 20.8191 40.1511 20.8191Z" fill="white"/>
<path fill-rule="evenodd" clip-rule="evenodd" d="M40.1512 20.8192C40.9725 20.8192 41.6383 20.1534 41.6383 19.3321C41.6383 18.5108 40.9725 17.845 40.1512 17.845C39.3299 17.845 38.6641 18.5108 38.6641 19.3321C38.6641 20.1534 39.3299 20.8192 40.1512 20.8192ZM35.6899 19.3321C35.6899 16.8682 37.6873 14.8708 40.1512 14.8708C42.6151 14.8708 44.6124 16.8682 44.6124 19.3321C44.6124 21.796 42.6151 23.7933 40.1512 23.7933C37.6873 23.7933 35.6899 21.796 35.6899 19.3321Z" fill="white"/>
<path d="M52.0479 32.7159C52.8692 32.7159 53.535 32.0501 53.535 31.2288C53.535 30.4075 52.8692 29.7417 52.0479 29.7417C51.2266 29.7417 50.5608 30.4075 50.5608 31.2288C50.5608 32.0501 51.2266 32.7159 52.0479 32.7159Z" fill="white"/>
<path fill-rule="evenodd" clip-rule="evenodd" d="M52.0479 32.7158C52.8692 32.7158 53.535 32.05 53.535 31.2287C53.535 30.4074 52.8692 29.7416 52.0479 29.7416C51.2266 29.7416 50.5608 30.4074 50.5608 31.2287C50.5608 32.05 51.2266 32.7158 52.0479 32.7158ZM47.5867 31.2287C47.5867 28.7648 49.584 26.7675 52.0479 26.7675C54.5118 26.7675 56.5092 28.7648 56.5092 31.2287C56.5092 33.6926 54.5118 35.69 52.0479 35.69C49.584 35.69 47.5867 33.6926 47.5867 31.2287Z" fill="white"/>
<path d="M25.2803 23.7934C26.1016 23.7934 26.7674 23.1276 26.7674 22.3063C26.7674 21.485 26.1016 20.8192 25.2803 20.8192C24.459 20.8192 23.7932 21.485 23.7932 22.3063C23.7932 23.1276 24.459 23.7934 25.2803 23.7934Z" fill="white"/>
<path fill-rule="evenodd" clip-rule="evenodd" d="M25.2803 23.7933C26.1016 23.7933 26.7674 23.1275 26.7674 22.3062C26.7674 21.4849 26.1016 20.8191 25.2803 20.8191C24.459 20.8191 23.7933 21.4849 23.7933 22.3062C23.7933 23.1275 24.459 23.7933 25.2803 23.7933ZM20.8191 22.3062C20.8191 19.8423 22.8165 17.845 25.2803 17.845C27.7442 17.845 29.7416 19.8423 29.7416 22.3062C29.7416 24.7701 27.7442 26.7675 25.2803 26.7675C22.8165 26.7675 20.8191 24.7701 20.8191 22.3062Z" fill="white"/>
<path d="M19.3321 38.6641C20.1533 38.6641 20.8191 37.9983 20.8191 37.177C20.8191 36.3557 20.1533 35.6899 19.3321 35.6899C18.5108 35.6899 17.845 36.3557 17.845 37.177C17.845 37.9983 18.5108 38.6641 19.3321 38.6641Z" fill="white"/>
<path fill-rule="evenodd" clip-rule="evenodd" d="M19.3321 38.6642C20.1534 38.6642 20.8192 37.9984 20.8192 37.1771C20.8192 36.3558 20.1534 35.69 19.3321 35.69C18.5108 35.69 17.845 36.3558 17.845 37.1771C17.845 37.9984 18.5108 38.6642 19.3321 38.6642ZM14.8708 37.1771C14.8708 34.7132 16.8682 32.7158 19.3321 32.7158C21.796 32.7158 23.7933 34.7132 23.7933 37.1771C23.7933 39.641 21.796 41.6383 19.3321 41.6383C16.8682 41.6383 14.8708 39.641 14.8708 37.1771Z" fill="white"/>
<path fill-rule="evenodd" clip-rule="evenodd" d="M2.97412 35.69C2.97412 17.6895 17.6895 2.97412 35.69 2.97412C53.2388 2.97412 68.2908 15.9172 68.382 32.2233L68.382 32.2399C68.382 42.9574 59.6024 51.7326 48.8863 51.7326H42.9499L42.8987 51.7322C42.6432 51.7278 42.3895 51.7748 42.1526 51.8706C41.9158 51.9663 41.7006 52.1087 41.5199 52.2894C41.3393 52.47 41.1968 52.6852 41.1011 52.9221C41.0054 53.159 40.9583 53.4127 40.9627 53.6681L40.9632 53.7194C40.9632 54.4163 41.1433 54.7117 41.3911 54.9586C41.4346 55.002 41.4768 55.0467 41.5176 55.0927C42.6993 56.4262 43.5655 58.2927 43.5655 60.4112C43.5655 64.7803 40.1608 68.4058 35.69 68.4058C17.6895 68.4058 2.97412 53.6905 2.97412 35.69ZM35.69 8.92245C20.9746 8.92245 8.92245 20.9746 8.92245 35.69C8.92245 50.4053 20.9746 62.4575 35.69 62.4575C36.7272 62.4575 37.6172 61.6455 37.6172 60.4112C37.6172 59.9497 37.4289 59.4697 37.107 59.0857C35.6939 57.6333 35.0204 55.8099 35.0149 53.745C35.0003 52.6999 35.1945 51.6624 35.5862 50.6932C35.9811 49.7161 36.5686 48.8285 37.3138 48.0833C38.059 47.3381 38.9466 46.7505 39.9237 46.3556C40.8919 45.9643 41.9284 45.7701 42.9724 45.7843H48.8863C56.3158 45.7843 62.4291 39.6754 62.4337 32.2483C62.3591 19.8393 50.6217 8.92245 35.69 8.92245Z" fill="white"/>
</svg>
