<svg width="72" height="72" viewBox="0 0 72 72" fill="none" xmlns="http://www.w3.org/2000/svg">
<path fill-rule="evenodd" clip-rule="evenodd" d="M21.6902 3.84523C22.8517 2.68375 24.7348 2.68375 25.8963 3.84523L31.4877 9.43667C32.6492 10.5982 32.6492 12.4813 31.4877 13.6428C30.3263 14.8043 28.4431 14.8043 27.2816 13.6428L21.6902 8.05134C20.5287 6.88986 20.5287 5.00672 21.6902 3.84523Z" fill="white"/>
<path fill-rule="evenodd" clip-rule="evenodd" d="M49.6896 3.84523C50.8511 5.00672 50.8511 6.88986 49.6896 8.05134L44.0982 13.6428C42.9367 14.8043 41.0536 14.8043 39.8921 13.6428C38.7306 12.4813 38.7306 10.5982 39.8921 9.43667L45.4835 3.84523C46.645 2.68375 48.5282 2.68375 49.6896 3.84523Z" fill="white"/>
<path fill-rule="evenodd" clip-rule="evenodd" d="M35.69 11.8752C34.8853 11.8752 34.0889 12.0383 33.3489 12.3545C32.6089 12.6707 31.9407 13.1336 31.3845 13.7153C30.8283 14.2969 30.3958 14.9851 30.1129 15.7385C29.83 16.4919 29.7027 17.2948 29.7387 18.0987C29.7407 18.143 29.7417 18.1873 29.7417 18.2316V21.2058C29.7417 22.8483 28.4101 24.1799 26.7675 24.1799C25.1249 24.1799 23.7933 22.8483 23.7933 21.2058V18.2933C23.732 16.7105 23.9872 15.1311 24.5441 13.6477C25.1094 12.142 25.9739 10.7665 27.0854 9.6042C28.197 8.44186 29.5324 7.51676 31.0113 6.88474C32.4902 6.25272 34.0818 5.92688 35.69 5.92688C37.2983 5.92688 38.8899 6.25272 40.3687 6.88474C41.8476 7.51676 43.1831 8.44186 44.2946 9.6042C45.4061 10.7665 46.2706 12.142 46.8359 13.6477C47.3928 15.1311 47.648 16.7105 47.5867 18.2933V21.2058C47.5867 22.8483 46.2551 24.1799 44.6125 24.1799C42.9699 24.1799 41.6383 22.8483 41.6383 21.2058V18.2316C41.6383 18.1873 41.6393 18.143 41.6413 18.0987C41.6773 17.2948 41.55 16.4919 41.2671 15.7385C40.9843 14.9851 40.5517 14.2969 39.9955 13.7153C39.4394 13.1336 38.7711 12.6707 38.0311 12.3545C37.2911 12.0383 36.4947 11.8752 35.69 11.8752Z" fill="white"/>
<path fill-rule="evenodd" clip-rule="evenodd" d="M29.7417 23.7933C27.3753 23.7933 25.1058 24.7334 23.4325 26.4066C21.7592 28.0799 20.8192 30.3494 20.8192 32.7158V41.6383C20.8192 49.8105 27.5179 56.5091 35.69 56.5091C43.8622 56.5091 50.5608 49.8105 50.5608 41.6383V32.7158C50.5608 30.3494 49.6208 28.0799 47.9475 26.4066C46.2742 24.7333 44.0047 23.7933 41.6383 23.7933H29.7417ZM19.2264 22.2005C22.0152 19.4117 25.7977 17.845 29.7417 17.845H41.6383C45.5823 17.845 49.3648 19.4117 52.1536 22.2005C54.9424 24.9894 56.5092 28.7718 56.5092 32.7158V41.6383C56.5092 53.0956 47.1474 62.4575 35.69 62.4575C24.2327 62.4575 14.8708 53.0956 14.8708 41.6383V32.7158C14.8708 28.7718 16.4376 24.9894 19.2264 22.2005Z" fill="white"/>
<path fill-rule="evenodd" clip-rule="evenodd" d="M35.69 29.7417C37.3326 29.7417 38.6642 31.0733 38.6642 32.7159V59.4834C38.6642 61.126 37.3326 62.4575 35.69 62.4575C34.0474 62.4575 32.7158 61.126 32.7158 59.4834V32.7159C32.7158 31.0733 34.0474 29.7417 35.69 29.7417Z" fill="white"/>
<path fill-rule="evenodd" clip-rule="evenodd" d="M8.92241 11.8966C10.565 11.8966 11.8966 13.2282 11.8966 14.8708C11.8966 19.5977 15.5085 23.3719 19.7278 23.8091C21.3616 23.9784 22.5489 25.4402 22.3795 27.074C22.2102 28.7078 20.7485 29.8951 19.1147 29.7258C11.8537 28.9733 5.94824 22.6353 5.94824 14.8708C5.94824 13.2282 7.27982 11.8966 8.92241 11.8966Z" fill="white"/>
<path fill-rule="evenodd" clip-rule="evenodd" d="M2.97412 38.6641C2.97412 37.0215 4.3057 35.6899 5.94829 35.6899H17.845C19.4875 35.6899 20.8191 37.0215 20.8191 38.6641C20.8191 40.3067 19.4875 41.6383 17.845 41.6383H5.94829C4.3057 41.6383 2.97412 40.3067 2.97412 38.6641Z" fill="white"/>
<path fill-rule="evenodd" clip-rule="evenodd" d="M23.195 50.4193C23.2732 52.06 22.0064 53.4534 20.3657 53.5316C15.7208 53.7528 11.8966 57.7842 11.8966 62.4574C11.8966 64.1 10.565 65.4316 8.92241 65.4316C7.27982 65.4316 5.94824 64.1 5.94824 62.4574C5.94824 54.6392 12.2362 47.9636 20.0828 47.59C21.7235 47.5118 23.1169 48.7786 23.195 50.4193Z" fill="white"/>
<path fill-rule="evenodd" clip-rule="evenodd" d="M62.3684 11.8966C64.011 11.8966 65.3425 13.2282 65.3425 14.8708C65.3425 22.6222 59.451 28.9694 52.2701 29.7253C50.6366 29.8972 49.1729 28.7123 49.001 27.0788C48.829 25.4452 50.0139 23.9816 51.6474 23.8096C55.7684 23.3758 59.3942 19.6108 59.3942 14.8708C59.3942 13.2282 60.7258 11.8966 62.3684 11.8966Z" fill="white"/>
<path fill-rule="evenodd" clip-rule="evenodd" d="M50.561 38.6641C50.561 37.0215 51.8926 35.6899 53.5352 35.6899H65.4319C67.0745 35.6899 68.406 37.0215 68.406 38.6641C68.406 40.3067 67.0745 41.6383 65.4319 41.6383H53.5352C51.8926 41.6383 50.561 40.3067 50.561 38.6641Z" fill="white"/>
<path fill-rule="evenodd" clip-rule="evenodd" d="M48.1851 50.4193C48.2632 48.7786 49.6566 47.5118 51.2973 47.59C59.1439 47.9636 65.4319 54.6392 65.4319 62.4574C65.4319 64.1 64.1003 65.4316 62.4577 65.4316C60.8151 65.4316 59.4835 64.1 59.4835 62.4574C59.4835 57.7842 55.6593 53.7528 51.0144 53.5316C49.3737 53.4534 48.1069 52.06 48.1851 50.4193Z" fill="white"/>
</svg>
