<svg width="72" height="72" viewBox="0 0 72 72" fill="none" xmlns="http://www.w3.org/2000/svg">
<path fill-rule="evenodd" clip-rule="evenodd" d="M31.235 4.17194C32.5899 3.39121 34.1261 2.98022 35.6899 2.98022C37.2537 2.98022 38.7901 3.39124 40.1449 4.17203C40.147 4.17323 40.1491 4.17442 40.1512 4.17561L60.9703 16.0723C62.3254 16.8546 63.4509 17.9795 64.2339 19.3342C65.0169 20.6888 65.43 22.2256 65.4316 23.7902V47.5897C65.43 49.1543 65.0169 50.6911 64.2339 52.0457C63.4509 53.4004 62.3254 54.5253 60.9703 55.3076L60.9588 55.3142L40.1512 67.2043C40.1494 67.2053 40.1476 67.2064 40.1458 67.2074C38.7907 67.9885 37.2541 68.3997 35.6899 68.3997C34.1258 68.3997 32.5892 67.9885 31.2342 67.2075C31.2323 67.2064 31.2305 67.2054 31.2287 67.2043L10.421 55.3142L10.4095 55.3076C9.05444 54.5253 7.92895 53.4004 7.14592 52.0457C6.36288 50.6911 5.94985 49.1543 5.94824 47.5897V23.7902C5.94985 22.2256 6.36288 20.6888 7.14592 19.3342C7.92895 17.9795 9.05444 16.8546 10.4095 16.0723L10.421 16.0657L31.235 4.17194ZM35.6899 8.92856C35.1678 8.92856 34.655 9.06598 34.2028 9.32702L34.1914 9.33364L13.3837 21.2237C13.3821 21.2246 13.3805 21.2255 13.379 21.2264C12.9294 21.4871 12.5559 21.861 12.2958 22.311C12.035 22.7622 11.8973 23.2739 11.8966 23.7951V47.5849C11.8973 48.106 12.035 48.6177 12.2958 49.0689C12.5559 49.5189 12.9294 49.8929 13.379 50.1535C13.3805 50.1544 13.3821 50.1553 13.3837 50.1562L34.2028 62.0529C34.655 62.3139 35.1678 62.4514 35.6899 62.4514C36.212 62.4514 36.7249 62.3139 37.177 62.0529L37.1885 62.0463L57.9962 50.1562C57.9977 50.1553 57.9993 50.1544 58.0009 50.1535C58.4504 49.8928 58.8239 49.5189 59.084 49.0689C59.345 48.6174 59.4827 48.1051 59.4832 47.5836V23.7963C59.4827 23.2748 59.345 22.7625 59.084 22.311C58.8239 21.861 58.4505 21.4871 58.0009 21.2264C57.9993 21.2255 57.9977 21.2246 57.9962 21.2237L37.177 9.32705C36.7248 9.06601 36.212 8.92856 35.6899 8.92856Z" fill="white"/>
<path fill-rule="evenodd" clip-rule="evenodd" d="M7.23611 19.3372C8.05459 17.913 9.87259 17.422 11.2967 18.2405L35.69 32.2596L60.0833 18.2405C61.5074 17.422 63.3254 17.913 64.1439 19.3372C64.9624 20.7613 64.4714 22.5793 63.0472 23.3978L37.172 38.2686C36.2544 38.796 35.1256 38.796 34.208 38.2686L8.33278 23.3978C6.90863 22.5793 6.41764 20.7613 7.23611 19.3372Z" fill="white"/>
<path fill-rule="evenodd" clip-rule="evenodd" d="M35.69 32.7158C37.3326 32.7158 38.6642 34.0474 38.6642 35.69V65.4317C38.6642 67.0742 37.3326 68.4058 35.69 68.4058C34.0474 68.4058 32.7158 67.0742 32.7158 65.4317V35.69C32.7158 34.0474 34.0474 32.7158 35.69 32.7158Z" fill="white"/>
</svg>
