<svg width="209" height="21" viewBox="0 0 209 21" fill="none" xmlns="http://www.w3.org/2000/svg">
<path fill-rule="evenodd" clip-rule="evenodd" d="M27.6479 1.7684V0.828369H20.1046V1.7684C22.4032 1.7684 22.9212 2.48153 22.3709 4.23193L19.3924 13.3729L15.3132 0.828369H14.601L10.6189 13.3405L7.67279 4.23193C7.05767 2.35187 7.51091 1.7684 10.2304 1.7684V0.828369H0V1.7684C2.68709 1.7684 3.14034 2.38428 3.85258 4.62091L9.09727 20.8284H9.77714L13.7916 8.2838L17.8708 20.8284H18.5507L23.7954 4.62091C24.5076 2.4167 24.9608 1.7684 27.6479 1.7684ZM45.1865 12.4721C45.1865 16.9991 41.2887 20.7192 36.5331 20.7192C31.7518 20.7192 27.8541 16.9991 27.8541 12.4721C27.8541 7.94515 31.7518 4.22511 36.5331 4.22511C41.2887 4.22511 45.1865 7.94515 45.1865 12.4721ZM41.7045 12.4721C41.7045 9.32449 40.1965 5.47394 36.5331 5.47394C32.8441 5.47394 31.3616 9.32364 31.3616 12.4721C31.3616 15.6198 32.8441 19.4712 36.5331 19.4712C40.1965 19.4712 41.7045 15.6207 41.7045 12.4721ZM57.0944 13.4352L59.6153 16.193C61.902 18.7163 62.8894 19.3151 64.4741 19.5232V20.2773H58.8358L54.2096 13.4352H53.4565V16.4788C53.4565 19.0805 53.7947 19.5232 55.951 19.5232V20.2773H47.7398V19.5232C49.897 19.5232 50.2088 19.0805 50.2088 16.4788V8.46549C50.2088 5.86377 49.897 5.42105 47.7398 5.42105V4.66698H56.4452C59.6673 4.66698 61.6933 6.64429 61.6933 9.06346C61.6933 11.3274 59.9272 13.175 57.0944 13.4352ZM54.8861 12.264C57.1463 12.264 58.2122 10.8326 58.2122 9.06346C58.2122 7.29514 57.1472 5.83818 54.8861 5.83818H53.4565V12.264H54.8861ZM65.4155 20.2773V19.5232C67.5727 19.5232 67.8845 19.0805 67.8845 16.4788V8.46549C67.8845 5.86377 67.5727 5.42105 65.4164 5.42105V4.66698H73.9914C80.0199 4.66698 82.6439 8.17973 82.6439 12.4721C82.6439 16.7654 80.0199 20.2773 73.9914 20.2773H65.4172H65.4155ZM71.1322 5.83733V16.1666C71.1322 18.6907 71.4704 19.107 73.6276 19.107H73.8874C78.0961 19.107 78.9541 15.4125 78.9541 12.4721C78.9541 9.53177 78.097 5.83818 73.8874 5.83818H71.133L71.1322 5.83733Z" fill="#434E00"/>
<path fill-rule="evenodd" clip-rule="evenodd" d="M190.433 4.66698H176.71V5.4219C178.866 5.4219 179.178 5.86377 179.178 8.46549V16.4788C179.178 19.0805 178.866 19.5232 176.71 19.5232V20.2773H184.921V19.5232C182.764 19.5232 182.427 19.0805 182.427 16.4788V12.6018H183.856C186.454 12.6018 186.87 12.914 186.87 15.0995H187.624V8.9338H186.87C186.87 11.0928 186.454 11.4315 183.856 11.4315H182.427V5.83733H186.844C189.208 5.83733 189.494 6.43615 189.832 7.81464L189.962 8.33498H190.742L190.556 5.42361C192.256 5.45517 192.95 5.93116 194.127 7.71057L197.895 13.4088V16.4788C197.895 19.0805 197.557 19.5232 195.401 19.5232V20.2773H203.508V19.5232C201.351 19.5232 201.039 19.0805 201.039 16.4788V13.3311L204.755 7.71142C205.846 6.01987 206.34 5.4219 208.497 5.4219V4.66698H202.209V5.4219C204.262 5.4219 204.547 5.99343 203.612 7.39836L200.701 11.7957L197.791 7.39836C196.856 6.01987 197.349 5.4219 199.168 5.4219V4.66698H190.434H190.433ZM114.31 13.4352L116.832 16.193C119.117 18.7163 120.105 19.3151 121.69 19.5232V20.2773H116.051L111.426 13.4352H110.673V16.4788C110.673 19.0805 111.01 19.5232 113.167 19.5232V20.2773H104.955V19.5232C107.111 19.5232 107.423 19.0805 107.423 16.4788V8.46549C107.423 5.86377 107.111 5.42105 104.955 5.42105V4.66698H113.66C116.882 4.66698 118.909 6.64429 118.909 9.06346C118.909 11.3274 117.142 13.175 114.31 13.4352V13.4352ZM112.101 12.264C114.363 12.264 115.427 10.8326 115.427 9.06346C115.427 7.29514 114.363 5.83818 112.101 5.83818H110.673V12.264H112.101V12.264ZM122.633 20.2773V19.5232C124.791 19.5232 125.102 19.0805 125.102 16.4788V8.46549C125.102 5.86377 124.791 5.42105 122.633 5.42105V4.66698H136.016L136.222 8.33498H135.468L135.339 7.81464C134.975 6.43615 134.715 5.83733 132.324 5.83733H128.348V11.4315H129.778C132.376 11.4315 132.792 11.0928 132.792 8.9338H133.545V15.0995H132.792C132.792 12.914 132.376 12.6018 129.778 12.6018H128.348V16.0625C128.348 18.6642 128.687 19.107 130.843 19.107H133.182C135.572 19.107 135.858 18.5081 136.196 17.1288L136.326 16.6085H137.079L136.872 20.2773H122.633H122.633ZM141.245 19.4968C140.865 19.8085 140.6 20.2389 140.492 20.7192H139.738V14.9954H140.518C141.012 17.7797 143.168 19.5488 145.299 19.5488C146.807 19.5488 147.898 18.6907 147.898 16.9727C147.898 16.0361 147.196 14.9698 145.975 14.3454L143.507 13.0445C141.297 11.9254 139.973 10.703 139.973 8.1277C139.973 5.99343 141.973 4.22511 144.494 4.22511C146.027 4.22511 146.885 4.71901 147.664 5.29139C147.976 5.03122 148.288 4.64053 148.417 4.0946H149.145V9.81839H148.392C148.209 7.73701 147.378 5.36902 144.65 5.36902C143.585 5.36902 142.545 6.15039 142.545 7.45039C142.545 8.23176 143.247 9.40211 144.624 10.105L147.118 11.3794C148.963 12.3416 150.47 13.9291 150.47 15.9849C150.47 18.8203 147.976 20.7192 145.299 20.7192C143.324 20.7192 142.077 19.6785 141.245 19.4968V19.4968ZM155.129 19.4968C154.748 19.8083 154.483 20.2387 154.375 20.7192H153.622V14.9954H154.401C154.896 17.7797 157.051 19.5488 159.183 19.5488C160.69 19.5488 161.781 18.6907 161.781 16.9727C161.781 16.0361 161.079 14.9698 159.858 14.3454L157.389 13.0445C155.181 11.9254 153.855 10.703 153.855 8.1277C153.855 5.99343 155.857 4.22511 158.377 4.22511C159.91 4.22511 160.767 4.71901 161.547 5.29139C161.859 5.03122 162.17 4.64053 162.301 4.0946H163.028V9.81839H162.274C162.093 7.73701 161.261 5.36902 158.533 5.36902C157.468 5.36902 156.428 6.15039 156.428 7.45039C156.428 8.23176 157.129 9.40211 158.507 10.105L161.002 11.3794C162.846 12.3416 164.353 13.9291 164.353 15.9849C164.353 18.8203 161.859 20.7192 159.182 20.7192C157.208 20.7192 155.961 19.6785 155.129 19.4968V19.4968ZM174.676 20.2773H166.465V19.5232C168.622 19.5232 168.934 19.0805 168.934 16.4788V8.46549C168.934 5.86377 168.622 5.42105 166.465 5.42105V4.66698H174.676V5.4219C172.52 5.4219 172.182 5.86377 172.182 8.46549V16.4788C172.182 19.0805 172.52 19.5232 174.676 19.5232V20.2773ZM96.6246 0.828369C100.639 0.828369 103.164 3.2919 103.164 6.30649C103.164 9.32108 100.639 11.7522 96.6246 11.7522H92.9015V15.5447C92.9015 18.7862 93.3224 19.3373 96.0095 19.3373V20.2773H85.7791V19.3373C88.4662 19.3373 88.8547 18.7862 88.8547 15.5447V5.56095C88.8547 2.31946 88.4662 1.7684 85.7791 1.7684V0.828369H96.6246ZM94.6821 10.2935C97.4987 10.2935 98.8261 8.5107 98.8261 6.30649C98.8261 4.10228 97.4987 2.28704 94.6821 2.28704H92.9015V10.2935H94.6821Z" fill="#859A00"/>
</svg>

