<svg width="32" height="32" viewBox="0 0 32 32" fill="none" xmlns="http://www.w3.org/2000/svg">
<path d="M16 6C17.3807 6 18.5 4.88071 18.5 3.5C18.5 2.11929 17.3807 1 16 1C14.6193 1 13.5 2.11929 13.5 3.5C13.5 4.88071 14.6193 6 16 6Z" stroke="#859A00" stroke-width="2" stroke-linejoin="round"/>
<path d="M12.7644 17.0771C12.9457 15.9483 13.0269 14.8571 12.7332 14.1027C12.4832 13.454 11.9394 13.0908 11.2832 12.8433L5.50003 10.9721C4.75003 10.7221 4.04941 10.3033 4.00003 9.47585C3.93753 8.41335 4.87503 7.72585 5.81253 7.97585C5.81253 7.97585 11.3125 9.9221 16 9.9221C20.6875 9.9221 26.125 7.9846 26.125 7.9846C27.25 7.6721 28 8.5471 28 9.47147C28 10.3596 27.3125 10.6721 26.5 10.9677L21 12.9621C20.5 13.1496 19.6875 13.5246 19.375 14.0983C19 14.7702 19.0625 15.944 19.2438 17.0727L19.6125 18.9246L21.9507 29.1683C22.1257 29.9902 21.5569 30.7583 20.7382 30.9021C19.9194 31.0458 19.25 30.4871 19.0075 29.6921L16.66 22.4465C16.5471 22.099 16.4471 21.7475 16.36 21.3921L16 19.9246L15.6688 21.2777C15.5638 21.709 15.4429 22.1356 15.3063 22.5577L13 29.6858C12.75 30.489 12.0938 31.0452 11.275 30.9021C10.4563 30.759 9.87503 29.9277 10.0588 29.1683L12.3957 18.929L12.7644 17.0771Z" stroke="#859A00" stroke-width="2" stroke-linejoin="round"/>
</svg>
