<svg width="32" height="32" viewBox="0 0 32 32" fill="none" xmlns="http://www.w3.org/2000/svg">
<path d="M26.882 21.7437C26.4695 21.3625 25.8632 21.2687 25.3445 21.1812C24.6257 21.0625 24.3507 20.9312 23.932 20.5562C23.0382 19.7625 23.0382 18.6125 23.932 17.8188L25.8257 16.1375C28.7257 13.575 28.7257 9.375 25.8257 6.8125C23.6882 4.93125 20.8195 4 17.8382 4C14.357 4 10.7195 5.26875 7.91321 7.75625C2.69446 12.3688 2.69446 19.925 7.91321 24.5375C10.507 26.8313 14.007 27.975 17.4695 28H17.5757C21.0382 28 24.4507 26.8813 26.8757 24.725C27.7757 23.9313 27.6251 22.4375 26.882 21.7437V21.7437Z" stroke="#859A00" stroke-width="2" stroke-miterlimit="10"/>
<path d="M10 13C10 13.5523 9.55228 14 9 14C8.44772 14 8 13.5523 8 13C8 12.4477 8.44772 12 9 12C9.55228 12 10 12.4477 10 13Z" fill="black" stroke="#859A00" stroke-width="2"/>
<path d="M10.5 19.4375C10.5 19.9898 10.0523 20.4375 9.5 20.4375C8.94772 20.4375 8.5 19.9898 8.5 19.4375C8.5 18.8852 8.94772 18.4375 9.5 18.4375C10.0523 18.4375 10.5 18.8852 10.5 19.4375Z" fill="black" stroke="#859A00" stroke-width="2"/>
<path d="M15 9C15 9.55228 14.5523 10 14 10C13.4477 10 13 9.55228 13 9C13 8.44772 13.4477 8 14 8C14.5523 8 15 8.44772 15 9Z" fill="black" stroke="#859A00" stroke-width="2"/>
<path d="M18 22.9375C18 24.0421 17.1046 24.9375 16 24.9375C14.8954 24.9375 14 24.0421 14 22.9375C14 21.8329 14.8954 20.9375 16 20.9375C17.1046 20.9375 18 21.8329 18 22.9375Z" fill="#859A00" stroke="#859A00" stroke-width="2"/>
<path d="M21.5 9C21.5 9.55228 21.0523 10 20.5 10C19.9477 10 19.5 9.55228 19.5 9C19.5 8.44772 19.9477 8 20.5 8C21.0523 8 21.5 8.44772 21.5 9Z" fill="black" stroke="#859A00" stroke-width="2"/>
</svg>
