<svg width="32" height="32" viewBox="0 0 32 32" fill="none" xmlns="http://www.w3.org/2000/svg">
<path d="M25.8538 15.3813H24.125C24.0918 15.3813 24.0601 15.3682 24.0366 15.3447C24.0132 15.3213 24 15.2895 24 15.2563V10.4288C24 9.7847 23.7441 9.16694 23.2886 8.71146C22.8332 8.25598 22.2154 8.0001 21.5713 8.0001H16.7437C16.7106 8.0001 16.6788 7.98693 16.6554 7.96348C16.6319 7.94004 16.6187 7.90825 16.6187 7.8751V6.14635C16.6187 4.4501 15.275 3.0301 13.5787 3.00072C13.1678 2.9935 12.7595 3.0682 12.3777 3.22045C11.9959 3.37271 11.6482 3.59948 11.355 3.88752C11.0618 4.17556 10.8289 4.51912 10.6698 4.89814C10.5108 5.27716 10.4289 5.68406 10.4288 6.0951V7.8751C10.4288 7.90825 10.4156 7.94004 10.3921 7.96348C10.3687 7.98693 10.3369 8.0001 10.3038 8.0001H5.47625C4.82012 8.00207 4.19142 8.2636 3.72746 8.72756C3.2635 9.19152 3.00198 9.82021 3 10.4763V14.8751C3 14.9082 3.01317 14.94 3.03661 14.9635C3.06005 14.9869 3.09185 15.0001 3.125 15.0001H4.80688C6.6425 15.0001 8.16188 16.5926 8.1875 18.4282C8.21375 20.2951 6.71812 22.0001 4.85687 22.0001H3.125C3.09185 22.0001 3.06005 22.0133 3.03661 22.0367C3.01317 22.0601 3 22.0919 3 22.1251V26.5238C3.00198 27.18 3.2635 27.8087 3.72746 28.2726C4.19142 28.7366 4.82012 28.9981 5.47625 29.0001H9.875C9.90815 29.0001 9.93995 28.9869 9.96339 28.9635C9.98683 28.94 10 28.9082 10 28.8751V27.567C10 25.6745 11.5469 24.0451 13.4375 24.0007C15.3188 23.957 17 25.2701 17 27.1432V28.8751C17 28.9082 17.0132 28.94 17.0366 28.9635C17.0601 28.9869 17.0918 29.0001 17.125 29.0001H21.5713C22.2154 29.0001 22.8332 28.7442 23.2886 28.2887C23.7441 27.8333 24 27.2155 24 26.5713V21.6963C24 21.6632 24.0132 21.6314 24.0366 21.608C24.0601 21.5845 24.0918 21.5713 24.125 21.5713H25.905C27.6319 21.5713 29 20.1545 29 18.4213C29 16.6882 27.55 15.3813 25.8538 15.3813V15.3813Z" stroke="#859A00" stroke-width="2" stroke-linecap="round" stroke-linejoin="round"/>
</svg>
