<svg width="245" height="246" viewBox="0 0 245 246" fill="none" xmlns="http://www.w3.org/2000/svg">
<g clip-path="url(#clip0)">
<path d="M0 122.926C0 171.543 28.3281 213.27 68.9062 233.176L10.7188 73.1602C3.82812 88.4727 0 105.316 0 122.926ZM205.188 116.801C205.188 101.488 199.828 91.1524 195.234 83.1134C189.109 73.1602 183.367 64.3556 183.367 54.4024C183.367 43.3009 191.789 32.5821 204.039 32.5821C204.422 32.5821 205.188 32.5821 205.57 32.5821C183.367 12.6759 154.273 0.425873 122.5 0.425873C79.625 0.425873 42.1094 22.2462 20.2891 55.5509C23.3516 55.5509 26.0312 55.5509 28.3281 55.5509C40.9609 55.5509 60.8672 54.0196 60.8672 54.0196C67.375 53.6368 68.1406 63.2071 61.6328 63.9727C61.6328 63.9727 55.125 64.7384 47.4688 65.1212L91.875 198.34L118.672 117.949L99.5312 65.504C93.0234 65.1212 86.5156 64.3556 86.5156 64.3556C80.0078 63.9728 80.7734 54.0196 87.2812 54.4024C87.2812 54.4024 107.57 55.9337 119.438 55.9337C132.07 55.9337 151.977 54.4024 151.977 54.4024C158.484 54.0196 159.25 63.5899 152.742 64.3556C152.742 64.3556 146.234 65.1212 138.578 65.504L183.75 197.191L196 156.231C200.977 139.387 205.188 127.137 205.188 116.801Z" fill="#859A00"/>
<path d="M124.797 133.645L88.0469 240.449C99.1484 243.512 110.633 245.426 122.5 245.426C136.664 245.426 150.445 243.129 163.078 238.535C162.695 238.152 162.313 237.387 162.313 237.004L124.797 133.645ZM230.07 63.9727C230.453 67.8009 230.836 72.0118 230.836 76.6056C230.836 88.8556 228.539 103.02 221.648 120.629L184.133 228.965C220.5 207.527 245 168.098 245 122.926C245 101.488 239.641 81.5821 230.07 63.9727Z" fill="#859A00"/>
</g>
<defs>
<clipPath id="clip0">
<rect width="245" height="245" fill="white" transform="translate(0 0.425873)"/>
</clipPath>
</defs>
</svg>
