<svg width="251" height="65" viewBox="0 0 251 65" fill="none" xmlns="http://www.w3.org/2000/svg">
<g clip-path="url(#clip0)">
<path d="M30.1387 59.7351C26.9511 58.1017 24.7509 56.0454 23.2558 53.9011C22.8919 54.0189 22.569 54.0934 22.3294 54.1397C22.2028 54.1642 22.0958 54.1815 22.0139 54.1934C21.9812 54.1981 21.9523 54.202 21.9275 54.2052C15.8364 55.1563 11.3391 53.4571 8.38008 51.4611C6.91758 50.4745 5.84532 49.4275 5.1334 48.6206C4.77626 48.2159 4.50603 47.8673 4.31926 47.6106C4.22761 47.4846 4.15573 47.3803 4.10323 47.3018C0.706677 43.2195 0.330227 38.8827 0.789791 35.642C1.02043 34.0156 1.46188 32.6458 1.84637 31.6788C2.03942 31.1933 2.22041 30.8036 2.35774 30.5273C2.42648 30.389 2.48453 30.2786 2.52799 30.1984L2.69535 29.9162C6.15272 24.8665 10.2367 22.8681 13.6534 22.2603C15.3209 21.9637 16.7596 22.0104 17.7963 22.1355C18.3157 22.1982 18.739 22.2811 19.0462 22.3528C19.2 22.3886 19.3254 22.4219 19.4199 22.4486C19.4672 22.462 19.5068 22.4738 19.5385 22.4835L19.5531 22.4881C23.1049 23.5291 25.8335 25.1952 27.8622 26.8875L45.038 17.8899L50.182 21.3519L35.4727 30.2684C37.0556 30.3905 38.5202 30.7609 39.7505 31.1835C40.7942 31.542 41.7244 31.9569 42.4898 32.3424L51.9252 21.6971L59.9904 11.2163L64.6795 14.9687C50.182 30.4957 50.6221 32.1736 48.5349 35.6152C51.0679 37.2607 52.6737 39.0269 53.6779 40.534C54.2945 41.4594 54.6755 42.2737 54.9068 42.8832C55.0224 43.1877 55.1008 43.4418 55.1528 43.6338C55.1787 43.7297 55.1983 43.8113 55.2128 43.8771C55.22 43.9096 55.2264 43.9407 55.232 43.9696C55.2345 43.9831 55.238 44.0018 55.2417 44.0233L55.2428 44.0301C55.2438 44.0359 55.2451 44.0442 55.2467 44.0541L55.2509 44.0828L55.2523 44.093C55.9512 49.0185 53.6855 52.9066 51.4345 55.4429C50.3019 56.7192 49.1353 57.6998 48.2526 58.3624C47.8091 58.6953 47.4317 58.9521 47.1582 59.1297C47.0212 59.2187 46.9098 59.2881 46.8286 59.3376C46.8011 59.3544 46.777 59.3689 46.7565 59.3811C42.9262 61.9092 38.6776 61.9272 35.5939 61.4138C34.0301 61.1534 32.6976 60.7471 31.755 60.4068C31.2814 60.2357 30.8999 60.079 30.6297 59.9615C30.4944 59.9028 30.2168 59.7716 30.1387 59.7351Z" fill="white"/>
<path fill-rule="evenodd" clip-rule="evenodd" d="M45.5713 36.6C45.5713 36.6 51.1482 25.2646 61.8644 17.7986L63.1645 17.7489C63.1888 16.7842 63.4583 15.8511 63.9518 15.0225C63.9518 15.0225 62.4124 15.0091 60.864 13.7838L55.7625 20.1816C55.7625 20.1816 45.6715 31.3403 43.235 35.6816C43.2451 35.6825 42.9461 36.8093 45.5713 36.6Z" fill="url(#paint0_radial)"/>
<path opacity="0.8" fill-rule="evenodd" clip-rule="evenodd" d="M45.6511 36.4561C45.6511 36.4561 51.1852 25.2477 61.8455 17.8786L63.1404 17.8318C63.1628 16.8771 63.4295 15.9541 63.9197 15.1349C63.9197 15.1349 62.3862 15.1188 60.8416 13.9031L55.772 20.2256C55.772 20.2256 45.7413 31.2507 43.3223 35.5428C43.3323 35.5437 43.0367 36.6583 45.6511 36.4561Z" fill="#353535"/>
<path fill-rule="evenodd" clip-rule="evenodd" d="M30.9058 33.9702C30.9058 33.9702 27.7479 27.2173 19.0393 24.6642C19.0393 24.6642 11.1583 22.0617 4.92998 31.1937C4.92998 31.1937 0.336995 39.1073 6.28955 46.1692C6.28955 46.1692 11.0116 53.8688 21.7837 52.1596C21.7837 52.1596 24.3582 51.8856 24.794 50.0002L30.9058 33.9702Z" fill="url(#paint1_radial)"/>
<path opacity="0.423" fill-rule="evenodd" clip-rule="evenodd" d="M31.2529 34.4866C31.2529 34.4866 27.1861 27.0951 18.3258 24.5025C18.3258 24.5025 11.119 22.5434 4.85817 31.5494C4.85817 31.5494 0.249396 39.3595 6.34251 46.4008C6.34251 46.4008 10.5523 53.1628 21.4894 52.1483C21.4894 52.1483 24.314 51.9846 24.7434 50.1192L31.2529 34.4866Z" fill="#353535" fill-opacity="0.2"/>
<path fill-rule="evenodd" clip-rule="evenodd" d="M25.1227 32.6275C24.4735 31.5833 24.7175 30.3745 25.6669 29.926C26.6164 29.4775 27.9125 29.9591 28.5622 31.0015C29.212 32.044 28.966 33.2523 28.0161 33.7026C27.0661 34.1528 25.7705 33.6695 25.1227 32.6275Z" fill="#231F20"/>
<path fill-rule="evenodd" clip-rule="evenodd" d="M25.1227 32.6275C24.4735 31.5833 24.7175 30.3745 25.6669 29.926C26.6164 29.4775 27.9125 29.9591 28.5622 31.0015C29.212 32.044 28.966 33.2523 28.0161 33.7026C27.0661 34.1528 25.7705 33.6695 25.1227 32.6275Z" fill="#231F20"/>
<path opacity="0.5" fill-rule="evenodd" clip-rule="evenodd" d="M31.1611 34.3097C31.1611 34.3097 27.9078 27.5946 19.0474 25.0021C19.0474 25.0021 11.0271 22.3666 4.76633 31.3725C4.76633 31.3725 0.157562 39.1827 6.25068 46.224C6.25068 46.224 11.0988 53.8886 22.0247 52.2715C22.0247 52.2715 24.637 52.0183 25.0664 50.1529L31.1611 34.3097Z" fill="url(#paint2_radial)" fill-opacity="0.4"/>
<g filter="url(#filter0_f)">
<path fill-rule="evenodd" clip-rule="evenodd" d="M26.3813 36.5144C26.3813 36.5144 19.516 30.5561 18.4664 29.725C18.4664 29.725 17.0372 35.1284 24.685 38.1279C24.685 38.1279 25.9772 38.042 26.3813 36.5144Z" fill="url(#paint3_linear)"/>
</g>
<path fill-rule="evenodd" clip-rule="evenodd" d="M43.222 35.3823C43.222 35.3823 36.9554 30.9442 31.2029 32.8924C31.2029 32.8924 24.5022 34.8778 22.7636 42.212C22.7636 42.212 20.7396 52.4359 31.2122 57.8231C31.2122 57.8231 39.0945 61.7561 45.3448 57.5698C45.3448 57.5698 53.9708 52.5878 52.7993 44.3618C52.803 44.3628 51.8267 38.9643 43.222 35.3823Z" fill="url(#paint4_radial)"/>
<g opacity="0.497" filter="url(#filter1_f)">
<path fill-rule="evenodd" clip-rule="evenodd" d="M42.4581 41.4552C42.4581 41.4552 35.3588 37.8985 39.7895 36.1277C39.7895 36.1277 48.3613 36.499 48.0416 42.9061C48.0416 42.9061 47.8881 43.9559 42.4581 41.4552Z" fill="white"/>
</g>
<path fill-rule="evenodd" clip-rule="evenodd" d="M27.5811 32.3516C27.5811 32.3516 25.9892 31.863 26.4702 30.0423L45.6233 19.9373L46.7738 20.6982L27.5811 32.3516Z" fill="url(#paint5_linear)"/>
<path opacity="0.8" fill-rule="evenodd" clip-rule="evenodd" d="M27.6194 32.2885C27.6194 32.2885 26.0344 31.8001 26.5293 29.9268L45.3851 20.0109L46.5272 20.7826L27.6194 32.2885Z" fill="#353535"/>
<path fill-rule="evenodd" clip-rule="evenodd" d="M39.4281 6.34783C55.3515 5.70945 65.1028 14.3787 65.7638 14.9859C59.4322 17.3818 31.9295 12.6587 27.8856 12.1031C31.3833 7.10734 39.4281 6.34783 39.4281 6.34783Z" fill="url(#paint6_linear)"/>
<path style="mix-blend-mode:multiply" opacity="0.5" fill-rule="evenodd" clip-rule="evenodd" d="M39.4281 6.34783C55.3515 5.70945 65.1028 14.3787 65.7638 14.9859C61.0121 16.3444 32.0019 12.6587 27.958 12.1031C31.4557 7.10734 39.4281 6.34783 39.4281 6.34783Z" fill="url(#paint7_linear)"/>
<path fill-rule="evenodd" clip-rule="evenodd" d="M65.6799 14.9671L65.7202 15.0013C65.2947 15.8947 63.5853 17.4511 63.5853 17.4511C55.9241 24.6826 43.9458 20.2374 43.9458 20.2374C32.5091 17.4488 27.8856 12.1031 27.8856 12.1031C31.9226 12.6791 60.9519 16.2532 65.6799 14.9671Z" fill="url(#paint8_linear)"/>
<path style="mix-blend-mode:multiply" opacity="0.5" fill-rule="evenodd" clip-rule="evenodd" d="M65.6799 14.9671L65.7202 15.0013C65.2947 15.8947 63.5853 17.4511 63.5853 17.4511C55.9241 24.6826 43.9458 20.2374 43.9458 20.2374C32.5091 17.4488 27.8856 12.1031 27.8856 12.1031C31.9226 12.6791 60.9519 16.2532 65.6799 14.9671Z" fill="url(#paint9_linear)"/>
</g>
<path fill-rule="evenodd" clip-rule="evenodd" d="M155.142 43.9162C150.682 47.7355 145.24 49.8446 139.618 49.8446C133.375 49.8446 129.613 47.23 128.529 42.9726C124.576 46.9604 119.667 49.7099 115.757 49.7099C111.906 49.7099 110.623 47.2176 110.623 44.456C110.623 40.6166 114.135 32.7358 114.135 29.9741C114.135 28.9637 113.663 28.6269 113.055 28.6269C111.028 28.6269 106.704 34.2176 101.705 46.4093C100.827 48.5648 100.017 49.6425 96.774 49.6425C95.3553 49.6425 93.2611 49.4404 90.8292 49.171C91.3631 47.9041 91.9493 46.2417 92.5579 44.3208C86.7338 49.562 80.3925 51.9326 73.4086 51.9326C61.3163 51.9326 54.696 44.3886 54.696 33.2746C54.696 17.1762 68.6122 0 85.7035 0C91.8509 0 97.3904 2.49223 97.458 9.96891C97.458 16.9067 91.3105 21.7565 85.5684 21.7565C81.8529 21.7565 80.3667 20.2073 80.3667 16.6373C81.0422 16.9067 81.9204 17.1088 82.7311 17.1088C86.2439 17.1088 89.0136 14.0104 89.0136 10.3731C89.0136 7.1399 87.1221 5.3886 83.7444 5.3886C75.3677 5.3886 66.0451 19.4663 66.0451 32.5337C66.0451 40.6166 70.0308 45.3316 77.6645 45.3316C83.5417 45.3316 89.4865 42.5026 94.7558 36.5751C94.7599 36.5917 94.7641 36.6082 94.7682 36.6246C97.3349 26.9299 99.6788 15.5887 99.6788 12.3264C99.6788 10.7098 99.4086 9.22798 98.6655 8.35233C101.705 6.80311 104.813 5.8601 107.11 5.8601C109.001 5.8601 110.15 6.66839 110.15 8.89119C110.15 11.2487 107.988 22.4974 105.421 31.5907C111.298 24.9223 116.635 21.4197 120.418 21.4197C122.647 21.4197 124.269 22.6995 124.269 25.6632C124.269 30.715 120.553 39.0674 120.553 42.0311C120.553 42.772 120.756 43.1088 121.296 43.1088C122.385 43.1088 125.463 40.6494 128.454 37.5266C129.906 29.6561 137.47 21.4197 147.589 21.4197C152.858 21.4197 155.493 23.171 155.493 26.8756C155.493 33.6114 147.589 38.1244 139.888 38.1244H138.199C137.996 38.8653 137.929 39.6736 137.929 40.2798C137.929 43.0415 139.415 44.7928 142.658 44.7928C146.305 44.7928 151.102 43.0415 156.236 37.3834C156.348 37.2718 156.46 37.1808 156.56 37.1216C159.088 33.9747 161.032 30.9198 162.06 28.4249C162.262 27.9534 162.33 27.6839 162.33 27.4819C162.33 26.6736 160.574 26.2021 160.574 24.1813C160.574 22.5648 161.587 19.9378 164.762 17.1762C167.734 21.9586 179.827 21.8912 179.827 28.0881C179.827 32.6684 175.436 39.5389 175.436 42.0985C175.436 42.9067 175.773 43.2435 176.246 43.2435C177.148 43.2435 180.008 41.3743 183.517 37.7988C186.314 34.415 188.467 31.0985 189.568 28.4249C189.771 27.9534 189.839 27.6839 189.839 27.4819C189.839 26.6736 188.082 26.2021 188.082 24.1813C188.082 22.5648 189.096 19.9378 192.271 17.1762C195.243 21.9586 207.335 21.8912 207.335 28.0881C207.335 32.6684 202.944 39.5389 202.944 42.0985C202.944 42.9067 203.282 43.2435 203.755 43.2435C204.901 43.2435 209.211 40.2235 213.997 34.5184C215.035 31.2146 216.064 28.0033 216.064 26C216.064 24.8549 215.861 23.9119 215.321 23.171C217.888 22.0259 220.793 21.4197 222.549 21.4197C225.116 21.4197 226.197 22.6321 226.197 24.8549C226.197 28.8964 221.671 39.6062 221.671 42.0985C221.671 43.1088 222.076 43.5803 222.819 43.5803C224.778 43.5803 229.507 39.1347 232.142 33.0725C233.358 30.3782 234.169 26.8757 234.169 25.1244C234.169 24.4508 234.101 23.4404 233.966 22.8342C236.128 21.8912 238.762 21.4197 240.384 21.4197C242.815 21.4197 244.234 22.1606 244.234 24.4508C244.234 26.943 240.789 37.7202 238.019 45.1295C241.87 42.4352 247.004 38.1244 249.368 34.9586C249.706 34.5544 249.976 34.3523 250.179 34.3523C250.517 34.3523 250.652 34.6891 250.652 35.3627C250.652 38.057 250.246 39.4041 249.098 40.7513C246.396 43.9845 241.532 48.228 236.06 51.7306C231.061 61.4301 225.184 65 222.279 65C220.185 65 218.766 60.9586 218.766 58.6684C218.766 57.1865 221.874 53.886 225.859 51.4611C226.602 50.9896 227.008 50.5855 227.21 50.1813C227.818 49.0363 229.169 45.2643 229.845 42.9067C223.427 48.1606 220.05 49.2383 216.672 49.2383C213.294 49.2383 211.876 46.9482 211.876 43.715C211.876 43.2002 211.925 42.6347 212.014 42.0306C207.641 46.6919 202.688 49.7099 198.688 49.7099C195.04 49.7099 193.622 47.5544 193.622 44.1865C193.622 40.3471 197.878 33.6788 197.878 31.3886C197.878 30.3782 196.391 30.0415 194.432 29.0311C191.595 34.5544 187.677 39.943 183.218 43.715C183.083 43.8497 182.813 43.9171 182.61 43.9171C182.609 43.9171 182.608 43.9171 182.607 43.9171C178.741 47.4899 174.61 49.7099 171.18 49.7099C167.532 49.7099 166.113 47.5544 166.113 44.1865C166.113 40.3471 170.369 33.6788 170.369 31.3886C170.369 30.3782 168.883 30.0415 166.924 29.0311C164.086 34.5544 160.168 39.943 155.71 43.715C155.583 43.841 155.339 43.9081 155.142 43.9162ZM146.846 27.0104C146.846 25.6632 146.305 24.8549 145.292 24.8549C143.063 24.8549 140.496 28.4922 138.874 35.228C143.13 34.8238 146.846 31.1192 146.846 27.0104Z" fill="white"/>
<defs>
<filter id="filter0_f" x="-11.6394" y="-0.274902" width="68.0207" height="68.4029" filterUnits="userSpaceOnUse" color-interpolation-filters="sRGB">
<feFlood flood-opacity="0" result="BackgroundImageFix"/>
<feBlend mode="normal" in="SourceGraphic" in2="BackgroundImageFix" result="shape"/>
<feGaussianBlur stdDeviation="15" result="effect1_foregroundBlur"/>
</filter>
<filter id="filter1_f" x="8.33417" y="6.12769" width="69.7162" height="66.997" filterUnits="userSpaceOnUse" color-interpolation-filters="sRGB">
<feFlood flood-opacity="0" result="BackgroundImageFix"/>
<feBlend mode="normal" in="SourceGraphic" in2="BackgroundImageFix" result="shape"/>
<feGaussianBlur stdDeviation="15" result="effect1_foregroundBlur"/>
</filter>
<radialGradient id="paint0_radial" cx="0" cy="0" r="1" gradientUnits="userSpaceOnUse" gradientTransform="translate(76.156 21.1675) rotate(149.08) scale(8.75107 23.7783)">
<stop offset="0.3" stop-color="#5F6831"/>
<stop offset="1" stop-color="#3D431C"/>
</radialGradient>
<radialGradient id="paint1_radial" cx="0" cy="0" r="1" gradientUnits="userSpaceOnUse" gradientTransform="translate(13.115 30.1731) rotate(-164.782) scale(8.18777 7.3949)">
<stop stop-color="#FDA4AF"/>
<stop offset="1" stop-color="#F43F5E"/>
</radialGradient>
<radialGradient id="paint2_radial" cx="0" cy="0" r="1" gradientUnits="userSpaceOnUse" gradientTransform="translate(30.7416 42.6236) rotate(-164.782) scale(13.2865 12.0003)">
<stop offset="0.55" stop-color="#231F20"/>
<stop offset="1" stop-color="#231F20" stop-opacity="0"/>
</radialGradient>
<linearGradient id="paint3_linear" x1="25.2757" y1="36.5429" x2="19.9424" y2="30.0616" gradientUnits="userSpaceOnUse">
<stop offset="0.01" stop-color="white"/>
<stop offset="1" stop-color="white" stop-opacity="0"/>
</linearGradient>
<radialGradient id="paint4_radial" cx="0" cy="0" r="1" gradientUnits="userSpaceOnUse" gradientTransform="translate(32.9833 40.6846) rotate(-164.783) scale(8.03543 7.25682)">
<stop stop-color="#FDA4AF"/>
<stop offset="1" stop-color="#F43F5E"/>
</radialGradient>
<linearGradient id="paint5_linear" x1="43.9622" y1="20.8998" x2="28.4038" y2="31.897" gradientUnits="userSpaceOnUse">
<stop offset="0.01" stop-color="#475023"/>
<stop offset="1" stop-color="#485425"/>
</linearGradient>
<linearGradient id="paint6_linear" x1="38.2743" y1="9.39903" x2="57.9005" y2="10.3574" gradientUnits="userSpaceOnUse">
<stop stop-color="#42642F"/>
<stop offset="1" stop-color="#527435"/>
</linearGradient>
<linearGradient id="paint7_linear" x1="41.4362" y1="6.61629" x2="40.8374" y2="10.9325" gradientUnits="userSpaceOnUse">
<stop stop-color="#231F20"/>
<stop offset="1" stop-color="#231F20" stop-opacity="0"/>
</linearGradient>
<linearGradient id="paint8_linear" x1="36.4636" y1="13.0984" x2="60.037" y2="14.23" gradientUnits="userSpaceOnUse">
<stop stop-color="#688C3C"/>
<stop offset="1" stop-color="#28A745"/>
</linearGradient>
<linearGradient id="paint9_linear" x1="51.9562" y1="19.9724" x2="52.3147" y2="15.8884" gradientUnits="userSpaceOnUse">
<stop stop-color="#231F20"/>
<stop offset="1" stop-color="#231F20" stop-opacity="0"/>
</linearGradient>
<clipPath id="clip0">
<rect width="66.6368" height="60.7915" fill="white" transform="translate(0 2.06812)"/>
</clipPath>
</defs>
</svg>
