<svg width="251" height="65" viewBox="0 0 251 65" fill="none" xmlns="http://www.w3.org/2000/svg">
<g clip-path="url(#clip0)">
<path fill-rule="evenodd" clip-rule="evenodd" d="M45.229 36.6188C45.229 36.6188 51.1737 23.7005 62.5966 15.1918L63.9824 15.1352C64.0083 14.0358 64.2955 12.9724 64.8217 12.028C64.8217 12.028 63.1807 12.0128 61.5302 10.6163L56.0923 17.9075C56.0923 17.9075 45.3359 30.6246 42.7386 35.5722C42.7494 35.5732 42.4308 36.8573 45.229 36.6188Z" fill="url(#paint0_radial)"/>
<path opacity="0.8" fill-rule="evenodd" clip-rule="evenodd" d="M45.3141 36.4547C45.3141 36.4547 51.2132 23.681 62.5765 15.2828L63.9567 15.2295C63.9806 14.1415 64.2649 13.0896 64.7874 12.1559C64.7874 12.1559 63.1528 12.1376 61.5064 10.7521L56.1024 17.9575C56.1024 17.9575 45.4102 30.5223 42.8317 35.4138C42.8424 35.4148 42.5273 36.6851 45.3141 36.4547Z" fill="#353535"/>
<path fill-rule="evenodd" clip-rule="evenodd" d="M29.5964 33.6218C29.5964 33.6218 26.2303 25.9259 16.9474 23.0162C16.9474 23.0162 8.54666 20.0503 1.90763 30.4575C1.90763 30.4575 -2.98823 39.4764 3.35687 47.5244C3.35687 47.5244 8.3903 56.2993 19.8727 54.3513C19.8727 54.3513 22.6171 54.0391 23.0816 51.8904L29.5964 33.6218Z" fill="url(#paint1_radial)"/>
<path opacity="0.423" fill-rule="evenodd" clip-rule="evenodd" d="M29.9664 34.2103C29.9664 34.2103 25.6314 25.7866 16.1868 22.832C16.1868 22.832 8.50476 20.5992 1.83109 30.8629C1.83109 30.8629 -3.0816 39.7638 3.41332 47.7884C3.41332 47.7884 7.9007 55.4946 19.559 54.3384C19.559 54.3384 22.5699 54.152 23.0276 52.026L29.9664 34.2103Z" fill="#353535" fill-opacity="0.2"/>
<path fill-rule="evenodd" clip-rule="evenodd" d="M23.432 32.0914C22.7399 30.9013 23 29.5237 24.0121 29.0125C25.0242 28.5014 26.4057 29.0503 27.0983 30.2383C27.7909 31.4264 27.5287 32.8034 26.5161 33.3165C25.5036 33.8297 24.1225 33.2788 23.432 32.0914Z" fill="#231F20"/>
<path fill-rule="evenodd" clip-rule="evenodd" d="M23.432 32.0914C22.7399 30.9013 23 29.5237 24.0121 29.0125C25.0242 28.5014 26.4057 29.0503 27.0983 30.2383C27.7909 31.4264 27.5287 32.8034 26.5161 33.3165C25.5036 33.8297 24.1225 33.2788 23.432 32.0914Z" fill="#231F20"/>
<path opacity="0.5" fill-rule="evenodd" clip-rule="evenodd" d="M29.8685 34.0087C29.8685 34.0087 26.4007 26.3558 16.956 23.4012C16.956 23.4012 8.40686 20.3977 1.73319 30.6613C1.73319 30.6613 -3.17951 39.5622 3.31541 47.5868C3.31541 47.5868 8.48321 56.3217 20.1297 54.4788C20.1297 54.4788 22.9142 54.1903 23.3719 52.0644L29.8685 34.0087Z" fill="url(#paint2_radial)" fill-opacity="0.4"/>
<g filter="url(#filter0_f)">
<path fill-rule="evenodd" clip-rule="evenodd" d="M24.7735 36.5213C24.7735 36.5213 17.4556 29.7309 16.3367 28.7839C16.3367 28.7839 14.8132 34.9418 22.9654 38.3602C22.9654 38.3602 24.3428 38.2623 24.7735 36.5213Z" fill="url(#paint3_linear)"/>
</g>
<path fill-rule="evenodd" clip-rule="evenodd" d="M42.7249 35.2311C42.7249 35.2311 36.045 30.1733 29.9131 32.3935C29.9131 32.3935 22.7706 34.6562 20.9173 43.0146C20.9173 43.0146 18.7598 54.6662 29.923 60.8058C29.923 60.8058 38.3252 65.288 44.9875 60.5171C44.9875 60.5171 54.1825 54.8394 52.9336 45.4646C52.9376 45.4658 51.8969 39.3133 42.7249 35.2311Z" fill="url(#paint4_radial)"/>
<g opacity="0.497" filter="url(#filter1_f)">
<path fill-rule="evenodd" clip-rule="evenodd" d="M41.9106 42.1519C41.9106 42.1519 34.3431 38.0985 39.0659 36.0804C39.0659 36.0804 48.203 36.5036 47.8622 43.8054C47.8622 43.8054 47.6986 45.0018 41.9106 42.1519Z" fill="white"/>
</g>
<path fill-rule="evenodd" clip-rule="evenodd" d="M26.0524 31.7771C26.0524 31.7771 24.3556 31.2203 24.8683 29.1454L45.2845 17.6291L46.5108 18.4964L26.0524 31.7771Z" fill="url(#paint5_linear)"/>
<path opacity="0.8" fill-rule="evenodd" clip-rule="evenodd" d="M26.0933 31.7054C26.0933 31.7054 24.4038 31.1488 24.9313 29.0139L45.0305 17.7132L46.248 18.5927L26.0933 31.7054Z" fill="#353535"/>
<path fill-rule="evenodd" clip-rule="evenodd" d="M38.6807 2.14195C55.6542 1.41442 66.0485 11.2944 66.7531 11.9864C60.004 14.7168 30.6877 9.33418 26.3771 8.70095C30.1054 3.00752 38.6807 2.14195 38.6807 2.14195Z" fill="url(#paint6_linear)"/>
<path style="mix-blend-mode:multiply" opacity="0.5" fill-rule="evenodd" clip-rule="evenodd" d="M38.6807 2.14195C55.6542 1.41442 66.0485 11.2944 66.7531 11.9864C61.688 13.5345 30.7648 9.33418 26.4542 8.70095C30.1825 3.00752 38.6807 2.14195 38.6807 2.14195Z" fill="url(#paint7_linear)"/>
<path fill-rule="evenodd" clip-rule="evenodd" d="M66.6637 11.9649L66.7066 12.0039C66.2531 13.022 64.431 14.7957 64.431 14.7957C56.2645 23.0372 43.4964 17.9712 43.4964 17.9712C31.3054 14.7932 26.3771 8.70096 26.3771 8.70096C30.6802 9.35741 61.6239 13.4305 66.6637 11.9649Z" fill="url(#paint8_linear)"/>
<path style="mix-blend-mode:multiply" opacity="0.5" fill-rule="evenodd" clip-rule="evenodd" d="M66.6637 11.9649L66.7066 12.0039C66.2531 13.022 64.431 14.7957 64.431 14.7957C56.2645 23.0372 43.4964 17.9712 43.4964 17.9712C31.3054 14.7932 26.3771 8.70096 26.3771 8.70096C30.6802 9.35741 61.6239 13.4305 66.6637 11.9649Z" fill="url(#paint9_linear)"/>
</g>
<path fill-rule="evenodd" clip-rule="evenodd" d="M155.142 43.9162C150.682 47.7355 145.24 49.8446 139.618 49.8446C133.375 49.8446 129.613 47.23 128.529 42.9726C124.576 46.9604 119.667 49.7099 115.757 49.7099C111.906 49.7099 110.623 47.2176 110.623 44.456C110.623 40.6166 114.135 32.7358 114.135 29.9741C114.135 28.9637 113.663 28.6269 113.055 28.6269C111.028 28.6269 106.704 34.2176 101.705 46.4093C100.827 48.5648 100.017 49.6425 96.774 49.6425C95.3553 49.6425 93.2611 49.4404 90.8292 49.171C91.3631 47.9041 91.9493 46.2417 92.5579 44.3208C86.7338 49.562 80.3925 51.9326 73.4086 51.9326C61.3163 51.9326 54.696 44.3886 54.696 33.2746C54.696 17.1762 68.6122 0 85.7035 0C91.8509 0 97.3904 2.49223 97.458 9.96891C97.458 16.9067 91.3105 21.7565 85.5684 21.7565C81.8529 21.7565 80.3667 20.2073 80.3667 16.6373C81.0422 16.9067 81.9204 17.1088 82.7311 17.1088C86.2439 17.1088 89.0136 14.0104 89.0136 10.3731C89.0136 7.1399 87.1221 5.3886 83.7444 5.3886C75.3677 5.3886 66.0451 19.4663 66.0451 32.5337C66.0451 40.6166 70.0308 45.3316 77.6645 45.3316C83.5417 45.3316 89.4865 42.5026 94.7558 36.5751C94.7599 36.5917 94.7641 36.6082 94.7682 36.6246C97.3349 26.9299 99.6788 15.5887 99.6788 12.3264C99.6788 10.7098 99.4086 9.22798 98.6655 8.35233C101.705 6.80311 104.813 5.8601 107.11 5.8601C109.001 5.8601 110.15 6.66839 110.15 8.89119C110.15 11.2487 107.988 22.4974 105.421 31.5907C111.298 24.9223 116.635 21.4197 120.418 21.4197C122.647 21.4197 124.269 22.6995 124.269 25.6632C124.269 30.715 120.553 39.0674 120.553 42.0311C120.553 42.772 120.756 43.1088 121.296 43.1088C122.385 43.1088 125.463 40.6494 128.454 37.5266C129.906 29.6561 137.47 21.4197 147.589 21.4197C152.858 21.4197 155.493 23.171 155.493 26.8756C155.493 33.6114 147.589 38.1244 139.888 38.1244H138.199C137.996 38.8653 137.929 39.6736 137.929 40.2798C137.929 43.0415 139.415 44.7928 142.658 44.7928C146.305 44.7928 151.102 43.0415 156.236 37.3834C156.348 37.2718 156.46 37.1808 156.56 37.1216C159.088 33.9747 161.032 30.9198 162.06 28.4249C162.262 27.9534 162.33 27.6839 162.33 27.4819C162.33 26.6736 160.574 26.2021 160.574 24.1813C160.574 22.5648 161.587 19.9378 164.762 17.1762C167.734 21.9586 179.827 21.8912 179.827 28.0881C179.827 32.6684 175.436 39.5389 175.436 42.0985C175.436 42.9067 175.773 43.2435 176.246 43.2435C177.148 43.2435 180.008 41.3743 183.517 37.7988C186.314 34.415 188.467 31.0985 189.568 28.4249C189.771 27.9534 189.839 27.6839 189.839 27.4819C189.839 26.6736 188.082 26.2021 188.082 24.1813C188.082 22.5648 189.096 19.9378 192.271 17.1762C195.243 21.9586 207.335 21.8912 207.335 28.0881C207.335 32.6684 202.944 39.5389 202.944 42.0985C202.944 42.9067 203.282 43.2435 203.755 43.2435C204.901 43.2435 209.211 40.2235 213.997 34.5184C215.035 31.2146 216.064 28.0033 216.064 26C216.064 24.8549 215.861 23.9119 215.321 23.171C217.888 22.0259 220.793 21.4197 222.549 21.4197C225.116 21.4197 226.197 22.6321 226.197 24.8549C226.197 28.8964 221.671 39.6062 221.671 42.0985C221.671 43.1088 222.076 43.5803 222.819 43.5803C224.778 43.5803 229.507 39.1347 232.142 33.0725C233.358 30.3782 234.169 26.8757 234.169 25.1244C234.169 24.4508 234.101 23.4404 233.966 22.8342C236.128 21.8912 238.762 21.4197 240.384 21.4197C242.815 21.4197 244.234 22.1606 244.234 24.4508C244.234 26.943 240.789 37.7202 238.019 45.1295C241.87 42.4352 247.004 38.1244 249.368 34.9586C249.706 34.5544 249.976 34.3523 250.179 34.3523C250.517 34.3523 250.652 34.6891 250.652 35.3627C250.652 38.057 250.246 39.4041 249.098 40.7513C246.396 43.9845 241.532 48.228 236.06 51.7306C231.061 61.4301 225.184 65 222.279 65C220.185 65 218.766 60.9586 218.766 58.6684C218.766 57.1865 221.874 53.886 225.859 51.4611C226.602 50.9896 227.008 50.5855 227.21 50.1813C227.818 49.0363 229.169 45.2643 229.845 42.9067C223.427 48.1606 220.05 49.2383 216.672 49.2383C213.294 49.2383 211.876 46.9482 211.876 43.715C211.876 43.2002 211.925 42.6347 212.014 42.0306C207.641 46.6919 202.688 49.7099 198.688 49.7099C195.04 49.7099 193.622 47.5544 193.622 44.1865C193.622 40.3471 197.878 33.6788 197.878 31.3886C197.878 30.3782 196.391 30.0415 194.432 29.0311C191.595 34.5544 187.677 39.943 183.218 43.715C183.083 43.8497 182.813 43.9171 182.61 43.9171C182.609 43.9171 182.608 43.9171 182.607 43.9171C178.741 47.4899 174.61 49.7099 171.18 49.7099C167.532 49.7099 166.113 47.5544 166.113 44.1865C166.113 40.3471 170.369 33.6788 170.369 31.3886C170.369 30.3782 168.883 30.0415 166.924 29.0311C164.086 34.5544 160.168 39.943 155.71 43.715C155.583 43.841 155.339 43.9081 155.142 43.9162ZM146.846 27.0104C146.846 25.6632 146.305 24.8549 145.292 24.8549C143.063 24.8549 140.496 28.4922 138.874 35.228C143.13 34.8238 146.846 31.1192 146.846 27.0104Z" fill="white"/>
<defs>
<filter id="filter0_f" x="-13.7761" y="-1.21606" width="68.5496" height="69.5763" filterUnits="userSpaceOnUse" color-interpolation-filters="sRGB">
<feFlood flood-opacity="0" result="BackgroundImageFix"/>
<feBlend mode="normal" in="SourceGraphic" in2="BackgroundImageFix" result="shape"/>
<feGaussianBlur stdDeviation="15" result="effect1_foregroundBlur"/>
</filter>
<filter id="filter1_f" x="7.51465" y="6.08032" width="70.3569" height="67.9742" filterUnits="userSpaceOnUse" color-interpolation-filters="sRGB">
<feFlood flood-opacity="0" result="BackgroundImageFix"/>
<feBlend mode="normal" in="SourceGraphic" in2="BackgroundImageFix" result="shape"/>
<feGaussianBlur stdDeviation="15" result="effect1_foregroundBlur"/>
</filter>
<radialGradient id="paint0_radial" cx="0" cy="0" r="1" gradientUnits="userSpaceOnUse" gradientTransform="translate(77.8306 19.0311) rotate(147.366) scale(9.50271 26.6012)">
<stop offset="0.3" stop-color="#5F6831"/>
<stop offset="1" stop-color="#3D431C"/>
</radialGradient>
<radialGradient id="paint1_radial" cx="0" cy="0" r="1" gradientUnits="userSpaceOnUse" gradientTransform="translate(10.6324 29.2945) rotate(-163.784) scale(8.77063 8.38637)">
<stop stop-color="#FDA4AF"/>
<stop offset="1" stop-color="#F43F5E"/>
</radialGradient>
<radialGradient id="paint2_radial" cx="0" cy="0" r="1" gradientUnits="userSpaceOnUse" gradientTransform="translate(29.4214 43.4836) rotate(-163.783) scale(14.2323 13.6093)">
<stop offset="0.55" stop-color="#231F20"/>
<stop offset="1" stop-color="#231F20" stop-opacity="0"/>
</radialGradient>
<linearGradient id="paint3_linear" x1="23.5951" y1="36.5539" x2="17.4516" y2="29.5707" gradientUnits="userSpaceOnUse">
<stop offset="0.01" stop-color="white"/>
<stop offset="1" stop-color="white" stop-opacity="0"/>
</linearGradient>
<radialGradient id="paint4_radial" cx="0" cy="0" r="1" gradientUnits="userSpaceOnUse" gradientTransform="translate(31.811 41.2739) rotate(-163.785) scale(8.60743 8.22978)">
<stop stop-color="#FDA4AF"/>
<stop offset="1" stop-color="#F43F5E"/>
</radialGradient>
<linearGradient id="paint5_linear" x1="43.5138" y1="18.7261" x2="26.2077" y2="30.1674" gradientUnits="userSpaceOnUse">
<stop offset="0.01" stop-color="#475023"/>
<stop offset="1" stop-color="#485425"/>
</linearGradient>
<linearGradient id="paint6_linear" x1="37.4509" y1="5.61924" x2="58.3775" y2="6.575" gradientUnits="userSpaceOnUse">
<stop stop-color="#42642F"/>
<stop offset="1" stop-color="#527435"/>
</linearGradient>
<linearGradient id="paint7_linear" x1="40.8213" y1="2.4479" x2="40.0936" y2="7.35363" gradientUnits="userSpaceOnUse">
<stop stop-color="#231F20"/>
<stop offset="1" stop-color="#231F20" stop-opacity="0"/>
</linearGradient>
<linearGradient id="paint8_linear" x1="35.5207" y1="9.83525" x2="60.6559" y2="10.9637" gradientUnits="userSpaceOnUse">
<stop stop-color="#688C3C"/>
<stop offset="1" stop-color="#28A745"/>
</linearGradient>
<linearGradient id="paint9_linear" x1="52.035" y1="17.6691" x2="52.4713" y2="13.0199" gradientUnits="userSpaceOnUse">
<stop stop-color="#231F20"/>
<stop offset="1" stop-color="#231F20" stop-opacity="0"/>
</linearGradient>
<clipPath id="clip0">
<rect width="66.6368" height="60.7915" fill="white" transform="translate(0 2.06812)"/>
</clipPath>
</defs>
</svg>
